0
SECTION
2
HEADER
9
$INSUNITS
70
4
9
$ACADVER
1
AC1014
9
$HANDSEED
5
FFFF
0
ENDSEC
0
SECTION
2
TABLES
0
TABLE
2
VPORT
5
8
100
AcDbSymbolTable
0
ENDTAB
0
TABLE
2
LTYPE
5
5
100
AcDbSymbolTable
0
LTYPE
5
14
100
AcDbSymbolTableRecord
100
AcDbLinetypeTableRecord
2
BYBLOCK
70
0
0
LTYPE
5
15
100
AcDbSymbolTableRecord
100
AcDbLinetypeTableRecord
2
BYLAYER
70
0
0
ENDTAB
0
TABLE
2
LAYER
5
2
100
AcDbSymbolTable
70
2
0
LAYER
5
50
100
AcDbSymbolTableRecord
100
AcDbLayerTableRecord
2
0
70
0
6
CONTINUOUS
0
ENDTAB
0
TABLE
2
STYLE
5
3
100
AcDbSymbolTable
70
1
0
STYLE
5
11
100
AcDbSymbolTableRecord
100
AcDbTextStyleTableRecord
2
STANDARD
70
0
0
ENDTAB
0
TABLE
2
VIEW
5
6
100
AcDbSymbolTable
70
0
0
ENDTAB
0
TABLE
2
UCS
5
7
100
AcDbSymbolTable
70
0
0
ENDTAB
0
TABLE
2
APPID
5
9
100
AcDbSymbolTable
70
2
0
APPID
5
12
100
AcDbSymbolTableRecord
100
AcDbRegAppTableRecord
2
ACAD
70
0
0
ENDTAB
0
TABLE
2
DIMSTYLE
5
A
100
AcDbSymbolTable
70
1
0
ENDTAB
0
TABLE
2
BLOCK_RECORD
5
1
100
AcDbSymbolTable
70
1
0
BLOCK_RECORD
5
1F
100
AcDbSymbolTableRecord
100
AcDbBlockTableRecord
2
*MODEL_SPACE
0
BLOCK_RECORD
5
1B
100
AcDbSymbolTableRecord
100
AcDbBlockTableRecord
2
*PAPER_SPACE
0
ENDTAB
0
ENDSEC
0
SECTION
2
BLOCKS
0
BLOCK
5
20
100
AcDbEntity
100
AcDbBlockBegin
2
*MODEL_SPACE
0
ENDBLK
5
21
100
AcDbEntity
100
AcDbBlockEnd
0
BLOCK
5
1C
100
AcDbEntity
100
AcDbBlockBegin
2
*PAPER_SPACE
0
ENDBLK
5
1D
100
AcDbEntity
100
AcDbBlockEnd
0
ENDSEC
0
SECTION
2
ENTITIES
0
CIRCLE
5
100
100
AcDbEntity
8
0
100
AcDbCircle
10
-5.1493939510249204e-15
20
12.000000000000009
30
0
40
6.5
210
-1.8554268380085712e-79
220
6.0771633572862712e-64
230
1
0
CIRCLE
5
101
100
AcDbEntity
8
0
100
AcDbCircle
10
14.250000599800003
20
-8.5000001489999946
30
0
40
0.99999999999999889
210
8.0964080204010418e-79
220
2.4719251152774797e-94
230
1
0
CIRCLE
5
102
100
AcDbEntity
8
0
100
AcDbCircle
10
12.028310075987246
20
17.98287403551582
30
0
40
1.0000000149011614
210
9.9518348584096139e-79
220
-6.0771633572862712e-64
230
1
0
CIRCLE
5
103
100
AcDbEntity
8
0
100
AcDbCircle
10
13.500000599799996
20
12.000000000000012
30
0
40
0.99999999999999889
210
8.0964080204010418e-79
220
2.4719251152774797e-94
230
1
0
CIRCLE
5
104
100
AcDbEntity
8
0
100
AcDbCircle
10
-13.500000599800011
20
12.000000000000004
30
0
40
0.99999999999999889
210
8.0964080204010418e-79
220
2.4719251152774797e-94
230
1
0
CIRCLE
5
105
100
AcDbEntity
8
0
100
AcDbCircle
10
-12.028310075987259
20
17.982874035515813
30
0
40
1.0000000149011614
210
9.9518348584096139e-79
220
-6.0771633572862712e-64
230
1
0
CIRCLE
5
106
100
AcDbEntity
8
0
100
AcDbCircle
10
-14.250000599800003
20
-8.5000001490000052
30
0
40
0.99999999999999889
210
8.0964080204010418e-79
220
2.4719251152774797e-94
230
1
0
LWPOLYLINE
5
107
100
AcDbEntity
8
0
100
AcDbPolyline
90
14
70
1
43
0.0
10
-16.000000238399998
20
-25.000000372500008
10
16.000000238400006
20
-25.000000372500001
10
20.000000753277725
20
-20.999999906874987
10
20.000000389055515
20
-12.199999172222327
10
15.513849102700735
20
-12.199999357899118
10
15.500000599800007
20
-10.000000148999995
10
15.5000005998
20
12.000000000000014
10
19.899748742132406
20
12.000000000000014
42
0.90453403373329122
10
-19.89974874213242
20
12
10
-15.500000599800012
20
12.000000000000004
10
-15.500000599800005
20
-10.000000149000005
10
-15.513849102700735
20
-12.199999357899127
10
-20.000000389055522
20
-12.199999172222338
10
-20.000000753277718
20
-20.999999906874997
0
CIRCLE
5
108
100
AcDbEntity
8
0
100
AcDbCircle
10
14.250000599800002
20
-8.5000001489999928
30
0
40
0.99999999999999867
210
5.3976053469340279e-79
220
-5.3224498000101884e-110
230
1
0
CIRCLE
5
109
100
AcDbEntity
8
0
100
AcDbCircle
10
12.028310075987243
20
17.982874035515817
30
0
40
1.0000000149011612
210
5.3976053469340279e-79
220
-5.3224498000101884e-110
230
1
0
CIRCLE
5
110
100
AcDbEntity
8
0
100
AcDbCircle
10
13.500000599799995
20
12.000000000000011
30
0
40
0.99999999999999867
210
5.3976053469340279e-79
220
-5.3224498000101884e-110
230
1
0
LWPOLYLINE
5
111
100
AcDbEntity
8
0
100
AcDbPolyline
90
14
70
1
43
0.0
10
20.000000753277721
20
-20.999999906874983
10
20.000000389055515
20
-12.199999172222324
10
15.513849102700732
20
-12.199999357899117
10
15.5000005998
20
-10.000000148999995
10
15.500000599799995
20
12.000000000000011
10
19.899748742132402
20
12.000000000000012
42
0.90453403373329166
10
-19.89974874213242
20
11.999999999999984
10
-15.500000599800007
20
12.000000000000002
10
-15.5000005998
20
-10.000000149000003
10
-15.513849102700728
20
-12.199999357899127
10
-20.000000389055522
20
-12.199999172222338
10
-20.000000753277721
20
-20.999999906874997
10
-16.000000238399995
20
-25.000000372500004
10
16.000000238399998
20
-25.000000372499997
0
CIRCLE
5
112
100
AcDbEntity
8
0
100
AcDbCircle
10
-14.250000599800002
20
-8.5000001490000017
30
0
40
0.99999999999999867
210
5.3976053469340279e-79
220
-5.3224498000101884e-110
230
1
0
CIRCLE
5
113
100
AcDbEntity
8
0
100
AcDbCircle
10
-12.028310075987257
20
17.982874035515806
30
0
40
1.0000000149011612
210
5.3976053469340279e-79
220
-5.3224498000101884e-110
230
1
0
CIRCLE
5
114
100
AcDbEntity
8
0
100
AcDbCircle
10
-13.500000599800009
20
12.000000000000002
30
0
40
0.99999999999999867
210
5.3976053469340279e-79
220
-5.3224498000101884e-110
230
1
0
CIRCLE
5
115
100
AcDbEntity
8
0
100
AcDbCircle
10
-6.6189701100017429e-15
20
12.000000000000007
30
0
40
6.4999999999999991
210
5.3976053469340279e-79
220
-5.3224498000101884e-110
230
1
0
ENDSEC
0
SECTION
2
OBJECTS
0
DICTIONARY
5
C
100
AcDbDictionary
3
ACAD_GROUP
350
D
3
ACAD_MLINESTYLE
350
17
0
DICTIONARY
5
D
100
AcDbDictionary
0
DICTIONARY
5
1A
330
C
100
AcDbDictionary
0
DICTIONARY
5
17
100
AcDbDictionary
0
ENDSEC
0
EOF
