0
SECTION
2
HEADER
9
$INSUNITS
70
4
9
$ACADVER
1
AC1014
9
$HANDSEED
5
FFFF
0
ENDSEC
0
SECTION
2
TABLES
0
TABLE
2
VPORT
5
8
100
AcDbSymbolTable
0
ENDTAB
0
TABLE
2
LTYPE
5
5
100
AcDbSymbolTable
0
LTYPE
5
14
100
AcDbSymbolTableRecord
100
AcDbLinetypeTableRecord
2
BYBLOCK
70
0
0
LTYPE
5
15
100
AcDbSymbolTableRecord
100
AcDbLinetypeTableRecord
2
BYLAYER
70
0
0
ENDTAB
0
TABLE
2
LAYER
5
2
100
AcDbSymbolTable
70
2
0
LAYER
5
50
100
AcDbSymbolTableRecord
100
AcDbLayerTableRecord
2
0
70
0
6
CONTINUOUS
0
ENDTAB
0
TABLE
2
STYLE
5
3
100
AcDbSymbolTable
70
1
0
STYLE
5
11
100
AcDbSymbolTableRecord
100
AcDbTextStyleTableRecord
2
STANDARD
70
0
0
ENDTAB
0
TABLE
2
VIEW
5
6
100
AcDbSymbolTable
70
0
0
ENDTAB
0
TABLE
2
UCS
5
7
100
AcDbSymbolTable
70
0
0
ENDTAB
0
TABLE
2
APPID
5
9
100
AcDbSymbolTable
70
2
0
APPID
5
12
100
AcDbSymbolTableRecord
100
AcDbRegAppTableRecord
2
ACAD
70
0
0
ENDTAB
0
TABLE
2
DIMSTYLE
5
A
100
AcDbSymbolTable
70
1
0
ENDTAB
0
TABLE
2
BLOCK_RECORD
5
1
100
AcDbSymbolTable
70
1
0
BLOCK_RECORD
5
1F
100
AcDbSymbolTableRecord
100
AcDbBlockTableRecord
2
*MODEL_SPACE
0
BLOCK_RECORD
5
1B
100
AcDbSymbolTableRecord
100
AcDbBlockTableRecord
2
*PAPER_SPACE
0
ENDTAB
0
ENDSEC
0
SECTION
2
BLOCKS
0
BLOCK
5
20
100
AcDbEntity
100
AcDbBlockBegin
2
*MODEL_SPACE
0
ENDBLK
5
21
100
AcDbEntity
100
AcDbBlockEnd
0
BLOCK
5
1C
100
AcDbEntity
100
AcDbBlockBegin
2
*PAPER_SPACE
0
ENDBLK
5
1D
100
AcDbEntity
100
AcDbBlockEnd
0
ENDSEC
0
SECTION
2
ENTITIES
0
LWPOLYLINE
5
100
100
AcDbEntity
8
0
100
AcDbPolyline
90
4
70
1
43
0.0
10
-5.4349650251132919
20
6.4000000000031863
10
-12.434965025113293
20
6.4000000000031863
10
-12.434965025113293
20
-0.00036607917344277929
10
-5.4349650251132919
20
-0.00036607917270977915
0
CIRCLE
5
101
100
AcDbEntity
8
0
100
AcDbCircle
10
-8.9349650251132928
20
3.5000000000031859
30
0
40
1.7500000000000004
210
0
220
-0
230
1
0
LWPOLYLINE
5
102
100
AcDbEntity
8
0
100
AcDbPolyline
90
8
70
1
43
0.0
10
-6.7349650251132882
20
6.0000000000031859
10
-6.8349650720519461
20
6.0000000000031859
10
-11.034964978174632
20
6.0000000000031859
10
-11.134965025113289
20
6.0000000000031859
10
-11.134965025113289
20
1.0000000000031861
10
-11.034964978174632
20
1.0000000000031861
10
-6.8349650720519461
20
1.0000000000031861
10
-6.7349650251132882
20
1.0000000000031861
0
LWPOLYLINE
5
103
100
AcDbEntity
8
0
100
AcDbPolyline
90
164
70
1
43
0.0
10
-7.2349649206188964
20
2.7400000000031866
10
-7.2349649206188964
20
2.3100000000031868
10
-6.5855377670311928
20
2.3100000000031864
10
-6.4006771162839389
20
2.3100000000031864
10
-6.3218807393673648
20
2.3100000000031864
10
-6.0445897632464867
20
2.3100000000031864
10
-5.7349650251132882
20
2.3100000000031864
10
-5.7349650251132882
20
2.0900000000031862
10
-6.0445897632464867
20
2.0900000000031866
10
-6.3218807393673657
20
2.0900000000031862
10
-6.4006771162839389
20
2.0900000000031866
10
-6.5855377670311928
20
2.0900000000031866
10
-7.2349649206188964
20
2.0900000000031871
10
-7.2349649206188964
20
1.6600000000031867
10
-6.5855377670311928
20
1.660000000003186
10
-6.4006771162839389
20
1.660000000003186
10
-6.3218807393673648
20
1.6600000000031858
10
-6.0445897632464867
20
1.660000000003186
10
-5.7349650251132882
20
1.660000000003186
10
-5.7349650251132882
20
1.4400000000031863
10
-6.0445897632464867
20
1.4400000000031858
10
-6.3218807393673657
20
1.4400000000031863
10
-6.4006771162839389
20
1.4400000000031858
10
-6.5855377670311928
20
1.4400000000031858
10
-11.284392283195384
20
1.4400000000031865
10
-11.469252933942638
20
1.4400000000031865
10
-11.548049310859213
20
1.4400000000031867
10
-11.82534028698009
20
1.4400000000031865
10
-12.134965025113289
20
1.4400000000031867
10
-12.134965025113289
20
1.6600000000031867
10
-11.82534028698009
20
1.6600000000031867
10
-11.548049310859213
20
1.6600000000031865
10
-11.469252933942638
20
1.6600000000031867
10
-11.284392283195384
20
1.6600000000031867
10
-10.63496512960768
20
1.6600000000031867
10
-10.63496512960768
20
2.0900000000031871
10
-11.284392283195384
20
2.0900000000031871
10
-11.469252933942638
20
2.0900000000031871
10
-11.548049310859213
20
2.0900000000031866
10
-11.82534028698009
20
2.0900000000031871
10
-12.134965025113289
20
2.0900000000031866
10
-12.134965025113289
20
2.3100000000031868
10
-11.82534028698009
20
2.3100000000031868
10
-11.548049310859213
20
2.3100000000031868
10
-11.469252933942638
20
2.3100000000031868
10
-11.284392283195384
20
2.3100000000031868
10
-10.63496512960768
20
2.3100000000031868
10
-10.63496512960768
20
2.7400000000031866
10
-11.284392283195384
20
2.7400000000031866
10
-11.469252933942638
20
2.7400000000031866
10
-11.548049310859213
20
2.7400000000031866
10
-11.82534028698009
20
2.7400000000031866
10
-12.134965025113289
20
2.7400000000031866
10
-12.134965025113289
20
2.9600000000031867
10
-11.82534028698009
20
2.9600000000031867
10
-11.548049310859213
20
2.9600000000031867
10
-11.469252933942638
20
2.9600000000031867
10
-11.284392283195384
20
2.9600000000031867
10
-10.63496512960768
20
2.9600000000031867
10
-10.63496512960768
20
3.3900000000031874
10
-11.284392283195384
20
3.3900000000031865
10
-11.469252933942638
20
3.3900000000031865
10
-11.548049310859213
20
3.3900000000031865
10
-11.82534028698009
20
3.3900000000031865
10
-12.134965025113289
20
3.3900000000031865
10
-12.134965025113289
20
3.6100000000031867
10
-11.82534028698009
20
3.6100000000031867
10
-11.548049310859213
20
3.6100000000031867
10
-11.469252933942638
20
3.6100000000031867
10
-11.284392283195384
20
3.6100000000031867
10
-10.63496512960768
20
3.6100000000031867
10
-10.63496512960768
20
4.0400000000031868
10
-11.284392283195384
20
4.0400000000031868
10
-11.469252933942638
20
4.0400000000031868
10
-11.548049310859213
20
4.0400000000031868
10
-11.82534028698009
20
4.0400000000031868
10
-12.134965025113289
20
4.0400000000031868
10
-12.134965025113289
20
4.2600000000031866
10
-11.82534028698009
20
4.2600000000031866
10
-11.548049310859213
20
4.2600000000031866
10
-11.469252933942638
20
4.2600000000031866
10
-11.284392283195384
20
4.2600000000031866
10
-10.63496512960768
20
4.2600000000031866
10
-10.63496512960768
20
4.6900000000031872
10
-11.284392283195384
20
4.6900000000031863
10
-11.469252933942638
20
4.6900000000031863
10
-11.548049310859213
20
4.6900000000031863
10
-11.82534028698009
20
4.6900000000031863
10
-12.134965025113289
20
4.6900000000031863
10
-12.134965025113289
20
4.9100000000031869
10
-11.82534028698009
20
4.9100000000031869
10
-11.548049310859213
20
4.9100000000031869
10
-11.469252933942638
20
4.9100000000031869
10
-11.284392283195384
20
4.9100000000031869
10
-10.63496512960768
20
4.9100000000031869
10
-10.63496512960768
20
5.3400000000031866
10
-11.284392283195384
20
5.3400000000031866
10
-11.469252933942638
20
5.3400000000031866
10
-11.548049310859213
20
5.3400000000031866
10
-11.82534028698009
20
5.3400000000031866
10
-12.134965025113289
20
5.3400000000031866
10
-12.134965025113289
20
5.5600000000031873
10
-11.82534028698009
20
5.5600000000031873
10
-11.548049310859213
20
5.5600000000031873
10
-11.469252933942638
20
5.5600000000031873
10
-11.284392283195384
20
5.5600000000031873
10
-6.5855377670311928
20
5.5600000000031873
10
-6.4006771162839389
20
5.5600000000031873
10
-6.3218807393673657
20
5.5600000000031873
10
-6.0445897632464867
20
5.5600000000031873
10
-5.7349650251132882
20
5.5600000000031873
10
-5.7349650251132882
20
5.3400000000031866
10
-6.0445897632464867
20
5.3400000000031866
10
-6.3218807393673657
20
5.3400000000031866
10
-6.4006771162839406
20
5.3400000000031866
10
-6.5855377670311928
20
5.3400000000031866
10
-7.2349649206188964
20
5.3400000000031866
10
-7.2349649206188964
20
4.9100000000031869
10
-6.5855377670311928
20
4.910000000003186
10
-6.4006771162839389
20
4.910000000003186
10
-6.3218807393673648
20
4.910000000003186
10
-6.0445897632464867
20
4.910000000003186
10
-5.7349650251132882
20
4.910000000003186
10
-5.7349650251132882
20
4.6900000000031863
10
-6.0445897632464867
20
4.6900000000031863
10
-6.3218807393673657
20
4.6900000000031863
10
-6.4006771162839389
20
4.6900000000031863
10
-6.5855377670311928
20
4.6900000000031863
10
-7.2349649206188964
20
4.6900000000031872
10
-7.2349649206188964
20
4.2600000000031866
10
-6.5855377670311928
20
4.2600000000031866
10
-6.4006771162839389
20
4.2600000000031866
10
-6.3218807393673648
20
4.2600000000031866
10
-6.0445897632464867
20
4.2600000000031866
10
-5.7349650251132882
20
4.2600000000031866
10
-5.7349650251132882
20
4.0400000000031868
10
-6.0445897632464867
20
4.0400000000031868
10
-6.3218807393673657
20
4.0400000000031868
10
-6.4006771162839389
20
4.0400000000031868
10
-6.5855377670311928
20
4.0400000000031868
10
-7.2349649206188964
20
4.0400000000031868
10
-7.2349649206188964
20
3.6100000000031867
10
-6.5855377670311928
20
3.6100000000031862
10
-6.4006771162839389
20
3.6100000000031862
10
-6.3218807393673648
20
3.6100000000031862
10
-6.0445897632464867
20
3.6100000000031862
10
-5.7349650251132882
20
3.6100000000031862
10
-5.7349650251132882
20
3.3900000000031865
10
-6.0445897632464867
20
3.3900000000031865
10
-6.3218807393673657
20
3.3900000000031865
10
-6.4006771162839389
20
3.3900000000031865
10
-6.5855377670311928
20
3.3900000000031865
10
-7.2349649206188964
20
3.3900000000031874
10
-7.2349649206188964
20
2.9600000000031867
10
-6.5855377670311928
20
2.9600000000031863
10
-6.4006771162839389
20
2.9600000000031863
10
-6.3218807393673648
20
2.9600000000031863
10
-6.0445897632464867
20
2.9600000000031863
10
-5.7349650251132882
20
2.9600000000031863
10
-5.7349650251132882
20
2.7400000000031866
10
-6.0445897632464867
20
2.7400000000031861
10
-6.3218807393673657
20
2.7400000000031866
10
-6.4006771162839389
20
2.7400000000031861
10
-6.5855377670311928
20
2.7400000000031861
0
CIRCLE
5
104
100
AcDbEntity
8
0
100
AcDbCircle
10
-8.9349650251132928
20
3.5000000000031894
30
0
40
1
210
0
220
0
230
1
0
ENDSEC
0
SECTION
2
OBJECTS
0
DICTIONARY
5
C
100
AcDbDictionary
3
ACAD_GROUP
350
D
3
ACAD_MLINESTYLE
350
17
0
DICTIONARY
5
D
100
AcDbDictionary
0
DICTIONARY
5
1A
330
C
100
AcDbDictionary
0
DICTIONARY
5
17
100
AcDbDictionary
0
ENDSEC
0
EOF
