0
SECTION
2
HEADER
9
$INSUNITS
70
4
9
$ACADVER
1
AC1014
9
$HANDSEED
5
FFFF
0
ENDSEC
0
SECTION
2
TABLES
0
TABLE
2
VPORT
5
8
100
AcDbSymbolTable
0
ENDTAB
0
TABLE
2
LTYPE
5
5
100
AcDbSymbolTable
0
LTYPE
5
14
100
AcDbSymbolTableRecord
100
AcDbLinetypeTableRecord
2
BYBLOCK
70
0
0
LTYPE
5
15
100
AcDbSymbolTableRecord
100
AcDbLinetypeTableRecord
2
BYLAYER
70
0
0
ENDTAB
0
TABLE
2
LAYER
5
2
100
AcDbSymbolTable
70
2
0
LAYER
5
50
100
AcDbSymbolTableRecord
100
AcDbLayerTableRecord
2
0
70
0
6
CONTINUOUS
0
ENDTAB
0
TABLE
2
STYLE
5
3
100
AcDbSymbolTable
70
1
0
STYLE
5
11
100
AcDbSymbolTableRecord
100
AcDbTextStyleTableRecord
2
STANDARD
70
0
0
ENDTAB
0
TABLE
2
VIEW
5
6
100
AcDbSymbolTable
70
0
0
ENDTAB
0
TABLE
2
UCS
5
7
100
AcDbSymbolTable
70
0
0
ENDTAB
0
TABLE
2
APPID
5
9
100
AcDbSymbolTable
70
2
0
APPID
5
12
100
AcDbSymbolTableRecord
100
AcDbRegAppTableRecord
2
ACAD
70
0
0
ENDTAB
0
TABLE
2
DIMSTYLE
5
A
100
AcDbSymbolTable
70
1
0
ENDTAB
0
TABLE
2
BLOCK_RECORD
5
1
100
AcDbSymbolTable
70
1
0
BLOCK_RECORD
5
1F
100
AcDbSymbolTableRecord
100
AcDbBlockTableRecord
2
*MODEL_SPACE
0
BLOCK_RECORD
5
1B
100
AcDbSymbolTableRecord
100
AcDbBlockTableRecord
2
*PAPER_SPACE
0
ENDTAB
0
ENDSEC
0
SECTION
2
BLOCKS
0
BLOCK
5
20
100
AcDbEntity
100
AcDbBlockBegin
2
*MODEL_SPACE
0
ENDBLK
5
21
100
AcDbEntity
100
AcDbBlockEnd
0
BLOCK
5
1C
100
AcDbEntity
100
AcDbBlockBegin
2
*PAPER_SPACE
0
ENDBLK
5
1D
100
AcDbEntity
100
AcDbBlockEnd
0
ENDSEC
0
SECTION
2
ENTITIES
0
CIRCLE
5
100
100
AcDbEntity
8
0
100
AcDbCircle
10
13.499999698251486
20
-2.75
30
0
40
0.70000000000000062
210
0
220
0
230
1
0
CIRCLE
5
101
100
AcDbEntity
8
0
100
AcDbCircle
10
-13.499999698251486
20
-2.7499999999999991
30
0
40
0.70000000000000062
210
0
220
0
230
1
0
CIRCLE
5
102
100
AcDbEntity
8
0
100
AcDbCircle
10
0
20
-19.5
30
0
40
4
210
0
220
0
230
1
0
LWPOLYLINE
5
103
100
AcDbEntity
8
0
100
AcDbPolyline
90
16
70
1
43
0.0
10
20
20
-19.868128653743632
10
20
20
-6.0000000000000009
10
15
20
-6.0000000000000009
10
15
20
6.0000000000000009
10
20
20
6.0000000000000009
10
20
20
10
42
0.99999999999999989
10
-20
20
10
10
-20
20
6.0000000000000009
10
-15
20
6.0000000000000009
10
-15
20
-6.0000000000000009
10
-20
20
-6.0000000000000009
10
-20
20
-19.868128653743639
42
0.28607112409054353
10
-17.762440398447353
20
-23.458922972821341
10
-5.454356057317824
20
-29.5
10
5.4543560573178205
20
-29.5
10
17.762440398447353
20
-23.458922972821341
42
0.28607112409054303
0
LWPOLYLINE
5
104
100
AcDbEntity
8
0
100
AcDbPolyline
90
4
70
1
43
0.0
10
10.04302005631021
20
19.921818678458877
10
12.871447117836121
20
17.093391616932962
10
16.406981023768861
20
20.628925522865693
10
13.578553962242948
20
23.457352584391611
0
LWPOLYLINE
5
105
100
AcDbEntity
8
0
100
AcDbPolyline
90
4
70
1
43
0.0
10
2.4023275645472926
20
24.281712748822102
10
6.161097963675858
20
22.913632206098416
10
7.8711986803041984
20
27.612095310027954
10
4.1124282811756343
20
28.980175852751643
0
LWPOLYLINE
5
106
100
AcDbEntity
8
0
100
AcDbPolyline
90
4
70
1
43
0.0
10
-6.1610979636758589
20
22.91363220609842
10
-2.4023275645472948
20
24.281712748822105
10
-4.1124282811756343
20
28.980175852751646
10
-7.8711986803041984
20
27.612095310027961
0
LWPOLYLINE
5
107
100
AcDbEntity
8
0
100
AcDbPolyline
90
4
70
1
43
0.0
10
-12.871447117836121
20
17.093391616932962
10
-10.04302005631021
20
19.921818678458877
10
-13.57855396224295
20
23.457352584391607
10
-16.406981023768857
20
20.628925522865693
0
CIRCLE
5
108
100
AcDbEntity
8
0
100
AcDbCircle
10
-13.5
20
-2.75
30
0
40
0.70000000000000062
210
0
220
0
230
1
0
LWPOLYLINE
5
109
100
AcDbEntity
8
0
100
AcDbPolyline
90
8
70
1
43
0.0
10
-12
20
-13.500000201165676
10
-12
20
-8.3422135525322609
10
-7
20
-8.3422135525322609
10
-7
20
-6.34221355253226
10
-12
20
-6.34221355253226
10
-12
20
11.984965012605402
10
-15
20
11.984965012605402
10
-15
20
-13.500000201165676
0
CIRCLE
5
110
100
AcDbEntity
8
0
100
AcDbCircle
10
13.5
20
-2.75
30
0
40
0.70000000000000062
210
0
220
0
230
1
0
LWPOLYLINE
5
111
100
AcDbEntity
8
0
100
AcDbPolyline
90
8
70
1
43
0.0
10
12
20
-8.3422135525322609
10
12
20
-13.500000201165676
10
15
20
-13.500000201165676
10
15
20
11.984965012605402
10
12
20
11.984965012605402
10
12
20
-6.3422135525322609
10
7
20
-6.34221355253226
10
7
20
-8.3422135525322609
0
ARC
5
112
100
AcDbEntity
8
0
100
AcDbCircle
10
-5.0000000000000124
20
14.499999999999995
30
2.7755575615628914e-16
40
1.9999999999999996
210
-0
220
0
230
1
100
AcDbArc
50
90
51
180
0
LINE
5
113
100
AcDbEntity
8
0
100
AcDbLine
10
-7.0000000000000142
20
14.499999999999995
30
2.7755575615628914e-16
11
-7.0000000000000124
21
-1.5000000000000058
31
2.7755575615628914e-16
0
ARC
5
114
100
AcDbEntity
8
0
100
AcDbCircle
10
-5.0000000000000098
20
-1.5000000000000058
30
2.7755575615628914e-16
40
2.0000000000000027
210
0
220
0
230
1
100
AcDbArc
50
180
51
270
0
LINE
5
115
100
AcDbEntity
8
0
100
AcDbLine
10
-5.0000000000000098
20
-3.5000000000000044
30
2.7755575615628914e-16
11
5.0000000000000009
21
-3.5000000000000018
31
2.7755575615628914e-16
0
ARC
5
116
100
AcDbEntity
8
0
100
AcDbCircle
10
5.0000000000000018
20
-1.5000000000000013
30
2.7755575615628914e-16
40
2.0000000000000009
210
-0
220
0
230
1
100
AcDbArc
50
-90
51
0
0
LINE
5
117
100
AcDbEntity
8
0
100
AcDbLine
10
7.0000000000000053
20
-1.5000000000000013
30
2.7755575615628914e-16
11
7.0000000000000036
21
14.499999999999996
31
2.7755575615628914e-16
0
ARC
5
118
100
AcDbEntity
8
0
100
AcDbCircle
10
5
20
14.499999999999996
30
2.7755575615628914e-16
40
2.0000000000000018
210
0
220
-0
230
1
100
AcDbArc
50
0
51
90
0
LINE
5
119
100
AcDbEntity
8
0
100
AcDbLine
10
5
20
16.499999999999993
30
2.7755575615628914e-16
11
-5.0000000000000107
21
16.499999999999993
31
2.7755575615628914e-16
0
LWPOLYLINE
5
120
100
AcDbEntity
8
0
100
AcDbPolyline
90
4
70
1
43
0.0
10
-8.5000000000000195
20
-2.8000000000000149
10
-8.5000000000000195
20
-2.2000000000000144
10
-7.900000000000019
20
-2.2000000000000139
10
-7.900000000000019
20
-2.8000000000000149
0
LWPOLYLINE
5
121
100
AcDbEntity
8
0
100
AcDbPolyline
90
4
70
1
43
0.0
10
-8.5000000000000195
20
-0.80000000000001403
10
-8.5000000000000195
20
-0.20000000000001406
10
-7.900000000000019
20
-0.200000000000014
10
-7.900000000000019
20
-0.80000000000001403
0
LWPOLYLINE
5
122
100
AcDbEntity
8
0
100
AcDbPolyline
90
4
70
1
43
0.0
10
-8.5000000000000195
20
1.1999999999999857
10
-8.5000000000000195
20
1.7999999999999863
10
-7.900000000000019
20
1.7999999999999863
10
-7.900000000000019
20
1.1999999999999857
0
LWPOLYLINE
5
123
100
AcDbEntity
8
0
100
AcDbPolyline
90
20
70
1
43
0.0
10
-9.0000000000000195
20
2.4999999999999862
42
0.41421356237309626
10
-9.2000000000000206
20
2.2999999999999856
10
-9.2000000000000206
20
0.69999999999998597
42
0.4142135623730952
10
-9.0000000000000195
20
0.49999999999998573
42
0.41421356237309592
10
-9.2000000000000206
20
0.29999999999998539
10
-9.2000000000000206
20
-1.3000000000000145
42
0.41421356237309503
10
-9.0000000000000195
20
-1.5000000000000147
42
0.41421356237309626
10
-9.2000000000000206
20
-1.7000000000000151
10
-9.2000000000000206
20
-3.3000000000000145
42
0.41421356237309426
10
-9.0000000000000195
20
-3.5000000000000142
10
-7.400000000000019
20
-3.5000000000000138
42
0.41421356237309587
10
-7.2000000000000188
20
-3.3000000000000136
10
-7.2000000000000188
20
-1.7000000000000137
42
0.41421356237309503
10
-7.400000000000019
20
-1.5000000000000135
42
0.41421356237309548
10
-7.2000000000000188
20
-1.3000000000000136
10
-7.2000000000000188
20
0.29999999999998639
42
0.41421356237309481
10
-7.400000000000019
20
0.49999999999998629
42
0.4142135623730952
10
-7.2000000000000188
20
0.69999999999998619
10
-7.2000000000000188
20
2.2999999999999865
42
0.41421356237309465
10
-7.400000000000019
20
2.4999999999999862
0
LWPOLYLINE
5
124
100
AcDbEntity
8
0
100
AcDbPolyline
90
4
70
1
43
0.0
10
8.5000000000000142
20
-2.2000000000000091
10
8.5000000000000142
20
-2.8000000000000096
10
7.9000000000000137
20
-2.8000000000000096
10
7.9000000000000137
20
-2.2000000000000091
0
LWPOLYLINE
5
125
100
AcDbEntity
8
0
100
AcDbPolyline
90
4
70
1
43
0.0
10
8.5000000000000142
20
-0.20000000000000928
10
8.5000000000000142
20
-0.80000000000000937
10
7.9000000000000137
20
-0.80000000000000948
10
7.9000000000000137
20
-0.20000000000000934
0
LWPOLYLINE
5
126
100
AcDbEntity
8
0
100
AcDbPolyline
90
4
70
1
43
0.0
10
8.5000000000000142
20
1.7999999999999909
10
8.5000000000000142
20
1.1999999999999904
10
7.9000000000000137
20
1.1999999999999904
10
7.9000000000000137
20
1.7999999999999909
0
LWPOLYLINE
5
127
100
AcDbEntity
8
0
100
AcDbPolyline
90
20
70
1
43
0.0
10
9.2000000000000153
20
2.2999999999999905
42
0.41421356237309875
10
9.0000000000000142
20
2.4999999999999907
10
7.4000000000000128
20
2.4999999999999902
42
0.41421356237309748
10
7.2000000000000135
20
2.2999999999999909
10
7.2000000000000135
20
0.69999999999999063
42
0.41421356237309825
10
7.4000000000000128
20
0.49999999999999045
42
0.41421356237309825
10
7.2000000000000135
20
0.29999999999999066
10
7.2000000000000135
20
-1.3000000000000096
42
0.41421356237309792
10
7.4000000000000128
20
-1.5000000000000093
42
0.41421356237309748
10
7.2000000000000135
20
-1.7000000000000093
10
7.2000000000000135
20
-3.3000000000000096
42
0.41421356237309748
10
7.4000000000000128
20
-3.5000000000000093
10
9.0000000000000142
20
-3.5000000000000089
42
0.41421356237309825
10
9.2000000000000153
20
-3.3000000000000096
10
9.2000000000000153
20
-1.7000000000000099
42
0.41421356237309875
10
9.0000000000000142
20
-1.5000000000000093
42
0.41421356237309748
10
9.2000000000000153
20
-1.3000000000000096
10
9.2000000000000153
20
0.29999999999999027
42
0.41421356237309875
10
9.0000000000000142
20
0.49999999999999073
42
0.41421356237309825
10
9.2000000000000153
20
0.69999999999999074
0
CIRCLE
5
128
100
AcDbEntity
8
0
100
AcDbCircle
10
-6.9388939039107783e-18
20
-19.5
30
0
40
4.0417871588016476
210
-0
220
0
230
1
0
CIRCLE
5
129
100
AcDbEntity
8
0
100
AcDbCircle
10
-6.9388939039107783e-18
20
-19.5
30
0
40
8.5000000000000018
210
-0
220
0
230
1
0
LWPOLYLINE
5
130
100
AcDbEntity
8
0
100
AcDbPolyline
90
3
70
1
43
0.0
10
-0.0085520372935568578
20
-16.500012189581746
42
0.0092313211627715504
10
-1.3877787807814462e-16
20
-16.543485565797649
10
5.5109105961630836e-16
20
-16.500000000000004
42
0.00071267086035631212
0
CIRCLE
5
131
100
AcDbEntity
8
0
100
AcDbCircle
10
13.500000000000014
20
-11.500000201165694
30
2.7755575615628914e-16
40
0.70000000000000062
210
0
220
-0
230
1
0
CIRCLE
5
132
100
AcDbEntity
8
0
100
AcDbCircle
10
-13.5
20
-11.500000201165676
30
2.7755575615628914e-16
40
0.70000000000000062
210
0
220
-0
230
1
0
CIRCLE
5
133
100
AcDbEntity
8
0
100
AcDbCircle
10
0
20
-19.5
30
2.7755575615628914e-16
40
0.99999999999999978
210
0
220
-0
230
1
0
LWPOLYLINE
5
134
100
AcDbEntity
8
0
100
AcDbPolyline
90
10
70
1
43
0.0
10
1.6120349982283069
20
-22.030087580398568
10
15
20
-13.500000201165676
10
15.000000000000002
20
-10.000000149011612
10
12.000000000000002
20
-10.000000149011612
10
9.5491611680960311
20
-11.331778106681456
42
-0.2541489390296478
10
-9.5491611680960258
20
-11.331778106681462
10
-12.000000000000002
20
-10.000000149011612
10
-15.000000000000002
20
-10.000000149011612
10
-15
20
-13.500000201165676
10
-1.6120349982283069
20
-22.030087580398568
42
0.29150261633146213
0
CIRCLE
5
135
100
AcDbEntity
8
0
100
AcDbCircle
10
-13.5
20
-11.500000201165676
30
0
40
0.70000000000000062
210
0
220
0
230
1
0
CIRCLE
5
136
100
AcDbEntity
8
0
100
AcDbCircle
10
13.5
20
-11.500000201165676
30
0
40
0.70000000000000062
210
0
220
0
230
1
0
LWPOLYLINE
5
137
100
AcDbEntity
8
0
100
AcDbPolyline
90
4
70
1
43
0.0
10
-12
20
5.4349650126054012
10
-12
20
12.434965012605399
10
-11.399999999999999
20
12.434965012605396
10
-11.399999999999999
20
5.4349650126053994
0
LWPOLYLINE
5
138
100
AcDbEntity
8
0
100
AcDbPolyline
90
4
70
1
43
0.0
10
12
20
12.434965012605396
10
12
20
5.4349650126053994
10
11.399999999999999
20
5.4349650126054012
10
11.399999999999999
20
12.434965012605399
0
ENDSEC
0
SECTION
2
OBJECTS
0
DICTIONARY
5
C
100
AcDbDictionary
3
ACAD_GROUP
350
D
3
ACAD_MLINESTYLE
350
17
0
DICTIONARY
5
D
100
AcDbDictionary
0
DICTIONARY
5
1A
330
C
100
AcDbDictionary
0
DICTIONARY
5
17
100
AcDbDictionary
0
ENDSEC
0
EOF
