0
SECTION
2
HEADER
9
$INSUNITS
70
4
9
$ACADVER
1
AC1014
9
$HANDSEED
5
FFFF
0
ENDSEC
0
SECTION
2
TABLES
0
TABLE
2
VPORT
5
8
100
AcDbSymbolTable
0
ENDTAB
0
TABLE
2
LTYPE
5
5
100
AcDbSymbolTable
0
LTYPE
5
14
100
AcDbSymbolTableRecord
100
AcDbLinetypeTableRecord
2
BYBLOCK
70
0
0
LTYPE
5
15
100
AcDbSymbolTableRecord
100
AcDbLinetypeTableRecord
2
BYLAYER
70
0
0
ENDTAB
0
TABLE
2
LAYER
5
2
100
AcDbSymbolTable
70
2
0
LAYER
5
50
100
AcDbSymbolTableRecord
100
AcDbLayerTableRecord
2
0
70
0
6
CONTINUOUS
0
ENDTAB
0
TABLE
2
STYLE
5
3
100
AcDbSymbolTable
70
1
0
STYLE
5
11
100
AcDbSymbolTableRecord
100
AcDbTextStyleTableRecord
2
STANDARD
70
0
0
ENDTAB
0
TABLE
2
VIEW
5
6
100
AcDbSymbolTable
70
0
0
ENDTAB
0
TABLE
2
UCS
5
7
100
AcDbSymbolTable
70
0
0
ENDTAB
0
TABLE
2
APPID
5
9
100
AcDbSymbolTable
70
2
0
APPID
5
12
100
AcDbSymbolTableRecord
100
AcDbRegAppTableRecord
2
ACAD
70
0
0
ENDTAB
0
TABLE
2
DIMSTYLE
5
A
100
AcDbSymbolTable
70
1
0
ENDTAB
0
TABLE
2
BLOCK_RECORD
5
1
100
AcDbSymbolTable
70
1
0
BLOCK_RECORD
5
1F
100
AcDbSymbolTableRecord
100
AcDbBlockTableRecord
2
*MODEL_SPACE
0
BLOCK_RECORD
5
1B
100
AcDbSymbolTableRecord
100
AcDbBlockTableRecord
2
*PAPER_SPACE
0
ENDTAB
0
ENDSEC
0
SECTION
2
BLOCKS
0
BLOCK
5
20
100
AcDbEntity
100
AcDbBlockBegin
2
*MODEL_SPACE
0
ENDBLK
5
21
100
AcDbEntity
100
AcDbBlockEnd
0
BLOCK
5
1C
100
AcDbEntity
100
AcDbBlockBegin
2
*PAPER_SPACE
0
ENDBLK
5
1D
100
AcDbEntity
100
AcDbBlockEnd
0
ENDSEC
0
SECTION
2
ENTITIES
0
LINE
5
100
100
AcDbEntity
8
0
100
AcDbLine
10
12.665442572822851
20
22.905088997908251
30
0
11
13.689819696335039
21
23.496513405919707
31
0
0
ELLIPSE
5
101
100
AcDbEntity
8
0
100
AcDbEllipse
10
0
20
6.0000000894069672
30
0
11
0
21
24.000000357627869
31
0.0
40
0.8333333892964655
41
5.5292801315858693
42
5.7778247968954286
0
LINE
5
102
100
AcDbEntity
8
0
100
AcDbLine
10
9.6824591600312715
20
27.000000402331349
30
0
11
-9.6824591600312573
21
27.000000402331356
31
0
0
ELLIPSE
5
103
100
AcDbEntity
8
0
100
AcDbEllipse
10
0
20
6.0000000894069672
30
0
11
0
21
24.000000357627869
31
0.0
40
0.8333333892964655
41
0.50536051028415707
42
1.5707963267948966
0
LINE
5
104
100
AcDbEntity
8
0
100
AcDbLine
10
-20.000001641138418
20
6.0000000894069681
30
0
11
-15.000000223517418
21
6.0000000894069672
31
0
0
LINE
5
105
100
AcDbEntity
8
0
100
AcDbLine
10
-15.000000223517418
20
6.0000000894069672
30
0
11
-15.000000223517418
21
-6.0000000894069672
31
0
0
LINE
5
106
100
AcDbEntity
8
0
100
AcDbLine
10
-15.000000223517418
20
-6.0000000894069672
30
0
11
-20.000327278665306
21
-6.0000000894069672
31
0
0
ELLIPSE
5
107
100
AcDbEntity
8
0
100
AcDbEllipse
10
0
20
-6.0000000894069672
30
0
11
0
21
-23.999999910593029
31
0.0
40
0.83334697304884731
41
4.7123889803846897
42
7.8539816339744828
0
LINE
5
108
100
AcDbEntity
8
0
100
AcDbLine
10
20.000327278665306
20
-6.0000000894069681
30
0
11
15.000000223517418
21
-6.0000000894069672
31
0
0
LINE
5
109
100
AcDbEntity
8
0
100
AcDbLine
10
15.000000223517418
20
-6.0000000894069672
30
0
11
15.000000223517418
21
5.990277457875739
31
0
0
LINE
5
110
100
AcDbEntity
8
0
100
AcDbLine
10
15.000000223517418
20
5.990277457875739
30
0
11
20
21
5.9902774578757274
31
0
0
ELLIPSE
5
111
100
AcDbEntity
8
0
100
AcDbEllipse
10
0
20
6.0000000894069672
30
0
11
0
21
24.000000357627869
31
0.0
40
0.8333333892964655
41
4.7119838707325101
42
5.2523230905751124
0
LINE
5
112
100
AcDbEntity
8
0
100
AcDbLine
10
17.154852524164852
20
18.337907703866044
30
0
11
15.765442572823154
21
17.53573149444421
31
0
0
LINE
5
113
100
AcDbEntity
8
0
100
AcDbLine
10
15.765442572823154
20
17.53573149444421
30
0
11
12.665442572822851
21
22.905088997908251
31
0
0
CIRCLE
5
114
100
AcDbEntity
8
0
100
AcDbCircle
10
13.500000223517418
20
2.75
30
0
40
0.70000000000000062
210
0
220
0
230
1
0
CIRCLE
5
115
100
AcDbEntity
8
0
100
AcDbCircle
10
-13.500000223517418
20
2.75
30
0
40
0.70000000000000062
210
0
220
0
230
1
0
CIRCLE
5
116
100
AcDbEntity
8
0
100
AcDbCircle
10
-13.500000223517418
20
-4
30
0
40
0.70000000000000062
210
0
220
0
230
1
0
CIRCLE
5
117
100
AcDbEntity
8
0
100
AcDbCircle
10
0
20
-6.0000000894069672
30
0
40
7.0000001043081284
210
0
220
0
230
1
0
CIRCLE
5
118
100
AcDbEntity
8
0
100
AcDbCircle
10
13.500000223517418
20
-4
30
0
40
0.70000000000000062
210
0
220
0
230
1
0
LINE
5
119
100
AcDbEntity
8
0
100
AcDbLine
10
11.652183498023819
20
-15.491090843856963
30
0
11
13.773503841583466
21
-13.369770500297316
31
0
0
LINE
5
120
100
AcDbEntity
8
0
100
AcDbLine
10
16.460509610092352
20
-16.056776268806207
30
0
11
14.339189266532706
21
-18.178096612365852
31
0
0
LINE
5
121
100
AcDbEntity
8
0
100
AcDbLine
10
11.298630107430547
20
-15.844644234450227
30
0
11
9.1773097638708965
21
-17.965964578009874
31
0
0
LINE
5
122
100
AcDbEntity
8
0
100
AcDbLine
10
14.020991214998757
20
-18.567005342018444
30
0
11
11.89967087143911
21
-20.688325685578089
31
0
0
LINE
5
123
100
AcDbEntity
8
0
100
AcDbLine
10
4.8944921526699527
20
-22.180246118562316
30
0
11
7.7135700150276856
21
-21.154185688585304
31
0
0
LINE
5
124
100
AcDbEntity
8
0
100
AcDbLine
10
9.0132465596652303
20
-24.725017647571775
30
0
11
6.1941686973074983
21
-25.751078077548787
31
0
0
LINE
5
125
100
AcDbEntity
8
0
100
AcDbLine
10
4.4246458422770019
20
-22.351256190225143
30
0
11
1.605567979919269
21
-23.377316620202151
31
0
0
LINE
5
126
100
AcDbEntity
8
0
100
AcDbLine
10
5.7414233940808295
20
-25.969072780250904
30
0
11
2.9223455317230962
21
-26.995133210227916
31
0
0
LINE
5
127
100
AcDbEntity
8
0
100
AcDbLine
10
-4.424645842277009
20
-22.351256190225151
30
0
11
-1.6055679799192712
21
-23.377316620202162
31
0
0
LINE
5
128
100
AcDbEntity
8
0
100
AcDbLine
10
-5.7414233940808357
20
-25.969072780250919
30
0
11
-2.9223455317230993
21
-26.995133210227927
31
0
0
LINE
5
129
100
AcDbEntity
8
0
100
AcDbLine
10
-4.8944921526699554
20
-22.180246118562316
30
0
11
-7.7135700150276909
21
-21.154185688585304
31
0
0
LINE
5
130
100
AcDbEntity
8
0
100
AcDbLine
10
-9.0132465596652356
20
-24.725017647571779
30
0
11
-6.1941686973075001
21
-25.75107807754879
31
0
0
LINE
5
131
100
AcDbEntity
8
0
100
AcDbLine
10
-11.298630107430544
20
-15.844644234450227
30
0
11
-9.1773097638708929
21
-17.965964578009874
31
0
0
LINE
5
132
100
AcDbEntity
8
0
100
AcDbLine
10
-14.020991214998752
20
-18.567005342018444
30
0
11
-11.899670871439106
21
-20.688325685578089
31
0
0
LINE
5
133
100
AcDbEntity
8
0
100
AcDbLine
10
-11.652183498023813
20
-15.491090843856959
30
0
11
-13.773503841583461
21
-13.36977050029731
31
0
0
LINE
5
134
100
AcDbEntity
8
0
100
AcDbLine
10
-16.460509610092348
20
-16.0567762688062
30
0
11
-14.339189266532701
21
-18.178096612365849
31
0
0
LWPOLYLINE
5
135
100
AcDbEntity
8
0
100
AcDbPolyline
90
6
70
1
43
0.0
10
15.00000022351742
20
-2.6610728945359714
10
-14.99999917298555
20
-2.6610728945359714
10
-15.000000223517418
20
-5.0625093326755986
10
-1.893461984989333
20
-10.42525944201854
42
0.1966699318693568
10
1.8934619849893335
20
-10.42525944201854
10
15.00000022351742
20
-5.0625093326755986
0
CIRCLE
5
136
100
AcDbEntity
8
0
100
AcDbCircle
10
13.500000223517418
20
-4
30
0
40
0.70000000000000062
210
0
220
-0
230
1
0
CIRCLE
5
137
100
AcDbEntity
8
0
100
AcDbCircle
10
0
20
-6.0000000894069672
30
0
40
0.99999999999999978
210
0
220
-0
230
1
0
CIRCLE
5
138
100
AcDbEntity
8
0
100
AcDbCircle
10
-13.500000223517418
20
-4
30
0
40
0.70000000000000062
210
0
220
-0
230
1
0
CIRCLE
5
139
100
AcDbEntity
8
0
100
AcDbCircle
10
-5.5511151231257817e-16
20
-6.0000000894072407
30
0
40
0.40000000000000036
210
-0
220
0
230
1
0
CIRCLE
5
140
100
AcDbEntity
8
0
100
AcDbCircle
10
-5.5511151231257817e-16
20
-6.0000000894072407
30
0
40
8.5
210
0
220
0
230
1
0
CIRCLE
5
141
100
AcDbEntity
8
0
100
AcDbCircle
10
6.7981554110908673e-33
20
-6.0000000894036809
30
0
40
3.0000000000000004
210
0
220
0
230
1
0
CIRCLE
5
142
100
AcDbEntity
8
0
100
AcDbCircle
10
13.500000223517418
20
2.75
30
0
40
0.70000000000000007
210
0
220
-0
230
1
0
CIRCLE
5
143
100
AcDbEntity
8
0
100
AcDbCircle
10
13.500000223517418
20
-4
30
0
40
0.70000000000000007
210
0
220
-0
230
1
0
LWPOLYLINE
5
144
100
AcDbEntity
8
0
100
AcDbPolyline
90
8
70
1
43
0.0
10
12.00000022351742
20
-11.934965025113776
10
12.00000022351742
20
6.3422135525322609
10
9.0000002235174197
20
6.34221355253226
10
9.0000002235174197
20
8.3422135525322592
10
12.00000022351742
20
8.3422135525322592
10
12.00000022351742
20
10.842213552532257
10
15.00000022351742
20
10.842213552532257
10
15.00000022351742
20
-11.934965025113776
0
CIRCLE
5
145
100
AcDbEntity
8
0
100
AcDbCircle
10
-13.500000223517418
20
2.75
30
0
40
0.70000000000000007
210
0
220
-0
230
1
0
CIRCLE
5
146
100
AcDbEntity
8
0
100
AcDbCircle
10
-13.500000223517418
20
-4
30
0
40
0.70000000000000007
210
0
220
-0
230
1
0
LWPOLYLINE
5
147
100
AcDbEntity
8
0
100
AcDbPolyline
90
8
70
1
43
0.0
10
-12.00000022351742
20
6.34221355253226
10
-12.00000022351742
20
-11.934965025113776
10
-15.00000022351742
20
-11.934965025113776
10
-15.00000022351742
20
10.842213552532257
10
-12.00000022351742
20
10.842213552532257
10
-12.00000022351742
20
8.3422135525322592
10
-9.0000002235174197
20
8.3422135525322592
10
-9.0000002235174197
20
6.34221355253226
0
LWPOLYLINE
5
148
100
AcDbEntity
8
0
100
AcDbPolyline
90
8
70
1
43
0.0
10
-11
20
13.000000000000007
42
0.41421356237309537
10
-10
20
12.000000000000007
10
10
20
12.000000000000007
42
0.41421356237309503
10
11
20
13.000000000000007
10
11
20
22.000000000000007
42
0.41421356237309503
10
10
20
23.000000000000007
10
-10
20
23.000000000000007
42
0.4142135623730937
10
-11
20
22.000000000000011
0
LWPOLYLINE
5
149
100
AcDbEntity
8
0
100
AcDbPolyline
90
44
70
1
43
0.0
10
15.885442572822674
20
17.327885397536775
10
16.140442572822923
20
16.886212441606276
10
15.560205552287471
20
16.551212441606349
10
15.305205552287223
20
16.992885397536845
10
14.214013543518792
20
16.362885397536825
10
14.469013543519043
20
15.921212441606327
10
13.888776522983591
20
15.586212441606399
10
13.633776522983341
20
16.027885397536895
10
13.558776522983337
20
16.157789208104571
10
13.51377652298382
20
16.23573149444433
10
13.188776522983725
20
16.798648006904379
10
12.409353659577549
20
16.34864800690427
10
12.209353659577459
20
16.695058168418203
10
12.988776522983636
20
17.145058168418309
10
11.688776522983627
20
19.396724218257862
10
10.90935365957745
20
18.946724218257756
10
10.709353659577488
20
19.29313437977147
10
11.488776522983667
20
19.743134379771575
10
10.938776522983705
20
20.695762323934389
10
10.159353659577528
20
20.245762323934283
10
9.9593536595774363
20
20.592172485448216
10
10.738776522983613
20
21.042172485448319
10
10.413776522983518
20
21.605088997908371
10
10.368776522984005
20
21.683031284248131
10
10.293776522984
20
21.812935094815803
10
10.038776522983747
20
22.254608050746295
10
10.6190135435192
20
22.589608050746229
10
10.87401354351945
20
22.147935094815733
10
11.965205552287879
20
22.777935094815753
10
11.710205552287629
20
23.219608050746249
10
12.290442572823082
20
23.554608050746179
10
12.545442572823331
20
23.112935094815683
10
12.620442572823031
20
22.983031284248536
10
12.665442572822851
20
22.905088997908251
10
13.515442572823007
20
21.432845811474436
10
13.688647653580086
20
21.532845811474544
10
14.641275597742673
20
22.082845811474378
10
14.914480678498986
20
22.009640730717642
10
15.364480678498829
20
21.230217867311158
10
15.291275597742677
20
20.957012786554596
10
14.338647653580093
20
20.407012786554766
10
14.165442572823013
20
20.307012786554655
10
15.765442572823154
20
17.53573149444421
10
15.810442572822668
20
17.457789208104451
0
LWPOLYLINE
5
150
100
AcDbEntity
8
0
100
AcDbPolyline
90
5
70
1
43
0.0
10
14.095042400348753
20
16.478949462141745
10
14.055042400348912
20
16.54823149444422
10
14.011741130159763
20
16.523231494444261
10
14.05674113015948
20
16.445289208104153
10
14.100042400348748
20
16.4702892081039
0
LWPOLYLINE
5
151
100
AcDbEntity
8
0
100
AcDbPolyline
90
5
70
1
43
0.0
10
12.122477965647091
20
22.695531284248599
10
12.167477965646912
20
22.61758899790831
10
12.124176695457763
20
22.592588997908358
10
12.084176695457922
20
22.661871030210833
10
12.079176695457923
20
22.670531284248675
0
LWPOLYLINE
5
152
100
AcDbEntity
8
0
100
AcDbPolyline
90
5
70
1
43
0.0
10
10.910042400348935
20
21.99553128424828
10
10.866741130159889
20
21.970531284248381
10
10.911741130159562
20
21.892588997908362
10
10.955042400348606
20
21.917588997908261
10
10.915042400348767
20
21.986871030210736
0
LWPOLYLINE
5
153
100
AcDbEntity
8
0
100
AcDbPolyline
90
5
70
1
43
0.0
10
15.264176695457905
20
17.153949462141838
10
15.224176695458064
20
17.223231494444317
10
15.267477965647114
20
17.248231494444216
10
15.312477965646847
20
17.17028920810408
10
15.269176695457904
20
17.145289208103993
0
CIRCLE
5
154
100
AcDbEntity
8
0
100
AcDbCircle
10
16.947816793994157
20
11.947816793994166
30
0
40
0.24999999999999994
210
0
220
-0
230
1
0
CIRCLE
5
155
100
AcDbEntity
8
0
100
AcDbCircle
10
16.947816793994157
20
14.947816793994168
30
0
40
0.24999999999999994
210
0
220
-0
230
1
0
LWPOLYLINE
5
156
100
AcDbEntity
8
0
100
AcDbPolyline
90
4
70
1
43
0.0
10
18.247816793994158
20
11.197816793994168
10
14.747816793994158
20
11.197816793994166
10
14.747816793994154
20
15.697816793994166
10
18.247816793994154
20
15.697816793994168
0
LWPOLYLINE
5
157
100
AcDbEntity
8
0
100
AcDbPolyline
90
8
70
1
43
0.0
10
17.500000223517414
20
7.742213552532256
10
17.500000223517414
20
6.9422135525322552
10
14.000000223517414
20
6.9422135525322552
10
14.000000223517414
20
4.3422135525322547
10
2.000000223517413
20
4.3422135525322547
10
2.000000223517413
20
10.342213552532256
10
14.000000223517414
20
10.342213552532256
10
14.000000223517414
20
7.7422135525322542
0
LWPOLYLINE
5
158
100
AcDbEntity
8
0
100
AcDbPolyline
90
8
70
1
43
0.0
10
-17.500000223517414
20
7.742213552532256
10
-17.500000223517414
20
6.9422135525322552
10
-14.000000223517414
20
6.9422135525322552
10
-14.000000223517414
20
4.3422135525322547
10
-2.000000223517413
20
4.3422135525322547
10
-2.000000223517413
20
10.342213552532256
10
-14.000000223517414
20
10.342213552532256
10
-14.000000223517414
20
7.7422135525322542
0
LWPOLYLINE
5
159
100
AcDbEntity
8
0
100
AcDbPolyline
90
4
70
1
43
0.0
10
-12.00000022351742
20
-5.4349650251132919
10
-12.00000022351742
20
-12.434965025113293
10
-11.40000022351742
20
-12.434965025113293
10
-11.40000022351742
20
-5.4349650251132919
0
LWPOLYLINE
5
160
100
AcDbEntity
8
0
100
AcDbPolyline
90
4
70
1
43
0.0
10
12.00000022351742
20
-12.434965025113293
10
12.00000022351742
20
-5.4349650251132919
10
11.40000022351742
20
-5.4349650251132919
10
11.40000022351742
20
-12.434965025113293
0
ENDSEC
0
SECTION
2
OBJECTS
0
DICTIONARY
5
C
100
AcDbDictionary
3
ACAD_GROUP
350
D
3
ACAD_MLINESTYLE
350
17
0
DICTIONARY
5
D
100
AcDbDictionary
0
DICTIONARY
5
1A
330
C
100
AcDbDictionary
0
DICTIONARY
5
17
100
AcDbDictionary
0
ENDSEC
0
EOF
